<?xml version="1.0" standalone="no"?>
<!DOCTYPE svg PUBLIC "-//W3C//DTD SVG 20010904//EN"
 "http://www.w3.org/TR/2001/REC-SVG-20010904/DTD/svg10.dtd">
<svg version="1.0" xmlns="http://www.w3.org/2000/svg"
 width="2363.000000pt" height="2363.000000pt" viewBox="0 0 2363.000000 2363.000000"
 preserveAspectRatio="xMidYMid meet">
<metadata>
Created by potrace 1.11, written by Peter Selinger 2001-2013
</metadata>
<g transform="translate(0.000000,2363.000000) scale(0.100000,-0.100000)"
fill="#000000" stroke="none">
<path d="M5275 16768 c-217 -34 -381 -76 -516 -133 -93 -39 -162 -82 -154 -94
2 -5 103 -79 222 -164 158 -112 244 -181 313 -251 100 -102 100 -100 24 -99
-12 0 -60 23 -106 51 -47 29 -88 52 -92 52 -3 0 -38 20 -78 44 -258 157 -360
210 -440 232 -52 13 -55 13 -117 -17 -63 -29 -121 -71 -187 -134 -28 -27 -190
-179 -331 -311 -51 -48 -52 -50 -35 -70 30 -35 57 -44 156 -49 178 -8 327 -46
493 -126 207 -99 356 -210 560 -416 296 -299 477 -598 542 -898 34 -155 28
-353 -15 -520 -40 -152 -125 -333 -223 -469 -143 -200 -391 -394 -621 -486
-30 -12 -64 -26 -75 -31 -66 -30 -248 -80 -335 -93 -135 -19 -293 -25 -370
-13 -109 16 -309 98 -395 162 -108 79 -342 251 -350 257 -95 72 -132 102 -196
159 l-76 68 -186 -187 c-103 -103 -187 -192 -187 -198 0 -5 21 -26 48 -46 26
-20 57 -45 68 -55 12 -10 56 -45 99 -78 42 -33 89 -70 103 -83 15 -12 77 -62
139 -110 l112 -87 -2 -51 -1 -51 -46 25 c-25 14 -90 51 -145 82 -518 295 -635
360 -653 360 -26 0 -106 -89 -132 -148 -11 -25 -30 -82 -41 -126 -11 -45 -32
-107 -46 -139 -14 -31 -24 -58 -22 -60 2 -1 18 -12 36 -25 18 -12 34 -22 37
-22 2 0 78 -49 168 -108 175 -116 357 -235 673 -441 110 -72 207 -135 215
-140 24 -17 237 -156 485 -318 445 -290 510 -333 525 -343 8 -5 78 -51 155
-102 77 -50 205 -134 285 -186 80 -52 233 -152 340 -222 107 -70 267 -174 355
-232 88 -57 278 -182 422 -276 l262 -171 49 13 c102 26 210 116 291 240 l44
67 -34 31 c-19 17 -79 72 -134 124 -55 51 -110 101 -121 111 -30 26 -239 219
-301 278 l-53 50 33 36 32 36 32 -21 c17 -12 80 -55 139 -97 60 -41 147 -102
194 -134 47 -33 152 -106 233 -162 82 -57 152 -103 155 -103 4 0 17 15 28 33
141 212 217 334 218 345 1 14 -105 91 -419 307 -80 55 -153 106 -163 113 -15
12 -398 279 -547 382 -61 42 -118 82 -625 434 -485 338 -587 409 -686 479
l-97 67 74 1 c419 4 826 103 1193 289 564 287 1004 772 1180 1301 82 247 100
384 101 744 l0 240 -33 105 c-147 470 -315 771 -586 1045 -196 198 -404 348
-686 497 -90 47 -96 48 -175 36z"/>
<path d="M1836 16724 c-9 -8 -19 -27 -22 -42 -3 -15 -8 -33 -10 -41 -3 -8 -7
-30 -10 -50 -3 -20 -9 -56 -14 -80 -10 -54 3 -101 36 -132 l26 -24 766 0 766
-1 71 59 c38 32 79 66 90 75 11 10 82 69 158 131 75 63 137 115 137 117 0 2
-445 4 -989 4 -886 0 -991 -2 -1005 -16z"/>
<path d="M6250 16735 c0 -3 56 -90 125 -193 l125 -187 1841 0 1841 -1 101 121
c56 66 109 128 117 139 8 10 30 34 48 55 18 20 37 44 43 54 9 16 -94 17 -2116
17 -1169 0 -2125 -2 -2125 -5z"/>
<path d="M10664 16574 c-76 -92 -149 -178 -160 -193 l-22 -26 1074 0 1073 0
72 85 c39 47 81 96 93 110 12 14 52 62 90 108 l68 82 -1074 0 -1074 0 -140
-166z"/>
<path d="M13229 16713 c-13 -16 -71 -84 -128 -153 -58 -69 -121 -142 -140
-162 -19 -21 -33 -39 -31 -39 3 -1 524 -2 1158 -3 l1152 -2 53 62 c28 34 70
83 92 109 50 61 111 132 139 165 12 14 25 31 29 38 7 9 -228 12 -1146 12
l-1154 0 -24 -27z"/>
<path d="M15794 16658 c-37 -46 -80 -96 -95 -113 -25 -28 -118 -140 -146 -175
-10 -14 69 -15 735 -14 411 1 750 2 755 3 4 0 22 17 41 37 61 65 136 243 136
324 0 20 -12 20 -679 20 l-679 0 -68 -82z"/>
<path d="M9327 16214 c-1 -1 -45 -11 -98 -22 -85 -18 -102 -25 -137 -59 -23
-21 -43 -49 -46 -63 -2 -14 -11 -63 -20 -110 -20 -107 -24 -133 -30 -195 -3
-27 -8 -66 -11 -85 -2 -19 -7 -55 -10 -80 -9 -76 -17 -134 -21 -155 -3 -11 -7
-54 -9 -95 -7 -90 -9 -108 -17 -115 -6 -7 -36 110 -42 170 -2 22 -12 59 -20
83 -11 29 -17 86 -20 170 -2 82 -9 147 -19 182 -10 30 -24 80 -32 110 -16 59
-79 136 -119 145 -11 3 -88 4 -171 3 -171 -4 -193 -11 -244 -80 l-31 -42 0
-578 0 -577 -206 -138 c-241 -162 -998 -744 -1002 -772 -2 -10 4 -49 13 -87 9
-38 19 -80 21 -94 3 -14 23 -105 45 -202 21 -98 39 -180 39 -183 0 -3 48 32
108 77 190 145 267 203 289 218 12 8 86 62 165 119 78 57 177 119 218 138 41
19 126 59 188 89 62 30 115 54 118 54 2 0 4 -832 4 -1848 l0 -1849 225 0 c248
0 227 -6 239 67 8 43 9 50 46 235 17 83 32 160 34 171 2 10 16 78 30 149 14
72 32 162 40 200 8 39 17 84 20 100 13 68 17 90 20 92 1 2 17 -48 34 -110 30
-105 31 -122 33 -294 0 -99 5 -198 9 -220 5 -21 12 -65 16 -98 8 -78 15 -93
56 -132 l33 -32 154 -6 c143 -6 157 -5 210 16 31 12 61 27 66 33 7 7 8 966 5
2856 l-5 2845 -83 0 c-46 0 -84 -1 -85 -1z"/>
<path d="M14879 16165 c-32 -8 -47 -18 -57 -38 -20 -41 -42 -171 -42 -247 0
-58 -3 -68 -19 -73 -28 -7 -53 54 -57 140 -3 72 -16 136 -33 162 -11 17 -102
23 -138 10 l-23 -9 0 -498 c0 -536 -4 -590 -60 -791 -74 -265 -228 -501 -391
-599 -105 -64 -252 -79 -336 -35 -175 92 -250 336 -184 606 70 291 333 608
691 833 l120 76 0 76 c0 80 -21 135 -56 149 -8 3 -61 -7 -116 -22 -117 -31
-101 -27 -248 -59 -63 -13 -137 -27 -165 -30 -27 -4 -61 -8 -75 -11 -23 -4
-46 -6 -200 -20 -276 -26 -340 -29 -557 -30 l-222 0 -7 -40 c-3 -22 -8 -47 -9
-57 -17 -87 -16 -104 2 -120 20 -18 154 -45 258 -52 33 -3 63 -5 68 -5 4 -1 7
-14 7 -31 0 -26 -5 -30 -42 -40 -24 -6 -56 -16 -73 -21 -31 -11 -92 -20 -160
-23 -40 -3 -40 -3 -38 -42 2 -21 8 -63 14 -92 l11 -54 51 6 c71 9 88 12 202
42 55 14 107 27 115 29 35 8 416 139 495 170 47 18 86 30 86 27 10 -49 7 -52
-120 -139 -181 -123 -262 -193 -367 -318 -111 -131 -199 -293 -234 -430 -20
-78 -27 -222 -15 -290 16 -91 31 -138 67 -214 69 -145 209 -260 360 -295 54
-12 191 -13 260 -2 61 11 93 17 110 22 9 3 25 7 36 9 11 2 55 18 98 35 284
113 507 339 603 610 l20 55 0 -397 1 -398 64 0 c120 0 127 9 141 173 3 39 8
79 10 87 3 13 13 105 18 175 1 11 9 21 18 23 13 2 17 -12 22 -90 6 -96 7 -102
27 -178 6 -25 14 -57 17 -72 7 -38 40 -56 112 -61 102 -7 94 -46 97 474 1 250
5 788 8 1197 3 408 2 743 -2 743 -36 6 -127 3 -163 -6z"/>
<path d="M16065 16162 c-63 -14 -97 -70 -119 -198 -23 -134 -29 -168 -29 -181
0 -7 -4 -13 -8 -13 -7 0 -18 35 -26 85 -14 94 -45 222 -58 242 -14 20 -23 23
-83 23 -37 0 -72 -4 -78 -8 -8 -5 -11 -337 -10 -1222 l1 -1215 55 -2 c91 -3
110 4 130 51 17 38 31 100 44 201 3 22 11 71 18 109 13 74 19 69 32 -21 2 -21
12 -78 20 -127 9 -49 16 -101 16 -116 0 -35 13 -40 103 -40 l72 0 1 103 c1 90
10 605 19 1127 13 729 17 981 19 1088 l2 123 -51 -3 c-27 -1 -59 -4 -70 -6z"/>
<path d="M12385 15919 c-28 -8 -220 -52 -275 -63 -14 -3 -47 -9 -75 -14 -27
-6 -75 -13 -105 -17 -30 -4 -57 -8 -60 -10 -3 -2 -30 -6 -60 -10 -30 -3 -66
-8 -80 -10 -46 -7 -180 -21 -285 -30 -102 -8 -293 -17 -448 -20 -81 -1 -150
-5 -152 -7 -10 -10 -36 -201 -29 -208 14 -12 89 -27 219 -45 66 -9 122 -19
125 -21 2 -3 5 -16 6 -29 1 -21 -6 -27 -50 -39 -81 -24 -146 -36 -211 -39
l-60 -4 3 -44 c1 -24 7 -65 13 -92 l11 -47 42 5 c130 16 252 49 594 161 178
58 326 104 328 101 3 -2 6 -14 9 -26 3 -17 -10 -30 -68 -67 -251 -163 -461
-365 -569 -550 -42 -72 -92 -192 -107 -259 -29 -125 -13 -330 34 -446 90 -222
279 -361 490 -360 165 1 272 21 412 77 288 116 513 348 603 621 l19 57 -40 36
c-22 20 -53 44 -68 53 l-29 17 -36 -77 c-116 -243 -295 -374 -513 -374 -105 0
-172 42 -247 156 -99 149 -92 428 16 640 127 251 357 495 651 691 l97 65 0 90
c0 87 -1 92 -29 120 -32 32 -32 32 -76 18z"/>
<path d="M17161 14554 c-302 -45 -562 -236 -655 -482 -36 -96 -45 -162 -42
-287 6 -213 84 -408 219 -549 26 -27 46 -51 43 -53 -2 -2 -179 -4 -393 -3
l-390 0 -45 -93 c-25 -50 -44 -94 -42 -96 2 -2 431 -4 954 -5 l950 -1 30 89
c16 49 27 93 24 97 -3 5 -114 9 -247 9 -133 -1 -270 0 -305 0 l-63 0 85 73
c46 39 85 75 85 78 1 3 -38 9 -86 12 -316 21 -544 222 -545 481 -1 123 45 227
142 327 123 125 224 169 379 164 108 -4 127 -7 226 -36 147 -44 305 -145 426
-274 l52 -55 74 74 c40 41 73 77 73 79 0 3 -81 57 -180 122 -168 109 -200 138
-167 151 7 2 87 -26 177 -64 91 -38 175 -72 188 -76 19 -6 35 4 97 66 41 40
75 75 75 79 0 15 -160 79 -265 105 -16 4 -34 8 -40 10 -12 3 -59 12 -100 19
-16 3 -64 12 -105 20 -158 29 -490 39 -629 19z"/>
<path d="M15649 13271 c-46 -15 -104 -38 -129 -51 -129 -66 -246 -183 -324
-326 -55 -99 -78 -122 -107 -103 -11 6 -11 19 -1 67 11 52 83 224 127 303 8
14 12 28 10 31 -7 7 -288 -53 -302 -64 -32 -26 -136 -277 -177 -428 -21 -79
-64 -306 -72 -382 -2 -21 -6 -57 -9 -80 -25 -223 -25 -757 0 -797 2 -4 6 -26
10 -50 8 -54 56 -219 84 -291 30 -75 105 -212 155 -285 118 -171 254 -287 407
-348 93 -37 126 -42 274 -41 188 2 320 43 474 148 191 130 340 324 407 531
l23 70 1 -542 0 -542 106 -3 c58 -2 107 -1 109 2 1 3 6 32 9 65 4 33 9 71 11
85 2 14 6 50 9 80 32 305 34 320 52 320 11 0 14 -21 14 -106 0 -58 4 -113 9
-122 5 -10 12 -38 16 -62 20 -145 25 -161 47 -180 13 -11 32 -20 43 -20 11 -1
46 -3 78 -5 l57 -3 1 32 c6 179 8 296 13 631 4 215 9 494 11 620 2 127 7 361
10 520 2 160 7 444 11 633 l6 342 -60 0 c-78 0 -158 -19 -178 -41 -16 -18 -39
-109 -50 -203 -4 -28 -8 -58 -10 -66 -1 -8 -3 -59 -3 -112 l-1 -98 -25 0 c-23
0 -26 4 -24 38 1 39 -9 176 -16 202 -2 8 -7 38 -10 65 -11 85 -13 95 -32 128
-18 31 -20 31 -96 32 -59 1 -81 -3 -92 -15 -12 -13 -15 -103 -18 -525 -2 -281
-7 -526 -11 -544 -3 -19 -13 -73 -21 -120 -54 -309 -175 -586 -328 -749 -174
-185 -392 -202 -548 -41 -81 83 -187 321 -224 504 -26 127 -30 178 -30 405 0
274 10 404 47 585 10 55 21 110 24 121 12 64 60 211 100 308 61 149 122 265
205 390 38 58 69 106 69 108 0 11 -60 2 -131 -21z"/>
<path d="M12589 13256 c-2 -2 -31 -6 -64 -10 -33 -3 -71 -8 -85 -11 -14 -2
-44 -6 -68 -9 -37 -4 -132 -43 -132 -53 0 -2 6 -16 14 -31 8 -15 26 -63 42
-107 23 -68 28 -101 32 -217 4 -122 2 -138 -12 -138 -8 0 -18 10 -20 23 -31
145 -59 234 -106 327 -37 74 -107 173 -119 166 -4 -3 -28 -7 -53 -10 -25 -3
-54 -9 -64 -12 -44 -15 -174 -67 -174 -69 0 -2 19 -36 43 -77 101 -171 174
-384 203 -588 2 -19 11 -73 19 -120 15 -89 21 -173 30 -381 l5 -127 -97 -32
c-124 -41 -272 -100 -371 -147 -357 -169 -627 -424 -724 -686 -27 -71 -31 -98
-34 -197 -6 -205 43 -337 176 -480 79 -85 258 -181 377 -205 287 -55 544 21
748 221 127 125 205 233 296 409 106 207 201 531 226 770 3 33 7 71 8 85 2 14
3 62 4 107 1 82 1 83 32 99 34 17 54 22 114 29 22 3 56 7 75 10 109 15 217 16
255 3 22 -8 64 -14 93 -13 l52 2 0 -849 0 -849 117 3 c115 3 116 3 120 28 2
14 12 81 24 150 11 69 21 136 23 150 15 95 40 230 42 227 9 -8 16 -93 19 -207
5 -235 20 -289 83 -291 15 0 52 -2 83 -4 40 -2 62 2 77 14 l21 16 7 1005 c3
553 7 1170 8 1373 3 336 1 367 -14 367 -32 0 -135 -21 -157 -32 -62 -31 -109
-220 -108 -434 1 -99 -1 -114 -15 -114 -13 0 -19 19 -29 93 -7 50 -15 110 -17
132 -3 22 -14 89 -24 149 -24 144 -31 151 -146 150 -73 0 -88 -3 -100 -19 -11
-15 -14 -96 -14 -436 l0 -417 -47 3 c-27 2 -61 8 -76 14 -35 14 -130 14 -222
0 -38 -5 -85 -12 -104 -14 -47 -6 -111 -15 -143 -21 l-26 -4 -1 448 c-1 246
-3 461 -6 477 -2 17 -7 55 -10 85 -6 55 -23 129 -51 227 -14 48 -23 60 -35 49z
m-512 -2026 c-6 -387 -8 -421 -41 -550 -9 -34 -60 -168 -77 -201 -42 -83 -123
-143 -189 -141 -33 1 -107 32 -151 63 -49 34 -107 116 -124 172 -19 64 -30
174 -29 292 3 284 188 559 484 717 36 19 79 39 95 45 29 9 30 8 33 -21 2 -17
2 -186 -1 -376z"/>
<path d="M18648 13243 c-35 -5 -203 -180 -278 -289 -30 -43 -69 -115 -87 -159
-29 -71 -36 -81 -63 -86 l-30 -6 0 54 c0 70 36 178 106 316 l54 107 -125 0
-125 0 -34 -52 c-120 -188 -235 -473 -261 -643 -3 -22 -8 -53 -11 -70 -24
-135 -46 -265 -49 -290 -3 -16 -8 -50 -13 -75 -9 -48 -8 -409 2 -472 47 -327
177 -577 420 -811 185 -178 413 -293 660 -332 130 -20 356 -13 461 14 388 102
716 417 849 815 55 165 69 264 71 491 2 116 -1 236 -5 268 -5 31 -11 88 -15
125 -3 37 -10 83 -15 102 -4 19 -22 105 -40 190 -28 139 -53 221 -95 315 -8
17 -30 69 -50 117 -41 101 -83 173 -149 259 -46 59 -49 61 -84 55 -40 -6 -47
-13 -132 -137 l-58 -86 45 -64 c70 -100 119 -215 151 -356 18 -75 18 -82 3
-85 -11 -2 -45 39 -108 129 -119 172 -225 279 -262 265 -24 -9 -173 -149 -163
-154 18 -8 140 -159 195 -242 116 -178 214 -409 243 -576 3 -14 7 -33 10 -42
29 -96 47 -389 31 -523 -28 -248 -170 -500 -348 -615 -151 -97 -364 -117 -519
-47 -160 72 -305 236 -376 424 -33 88 -74 228 -80 278 -3 22 -9 57 -14 77 -13
64 -10 386 6 487 28 186 115 492 189 666 63 147 173 352 200 375 8 7 15 17 15
22 0 9 104 151 164 224 19 23 22 33 13 37 -16 6 -262 6 -299 0z"/>
<path d="M10595 13123 c-22 -30 -45 -61 -50 -67 -21 -23 -45 -66 -38 -67 44
-4 1094 -1 1099 4 3 3 -7 45 -23 94 l-30 88 -459 2 -459 2 -40 -56z"/>
<path d="M12890 13085 c0 -69 3 -95 13 -96 72 -4 1702 -2 1709 2 8 5 88 173
88 185 0 2 -407 3 -905 3 l-905 0 0 -94z"/>
<path d="M20087 13087 c26 -51 48 -94 50 -96 2 -3 396 -4 876 -4 l872 0 1 96
0 96 -923 0 -922 0 46 -92z"/>
<path d="M21270 12910 c-42 -10 -92 -64 -108 -117 -6 -21 -21 -96 -32 -168
-12 -71 -24 -139 -27 -150 -6 -19 -6 -19 -14 3 -7 18 -33 146 -44 217 -11 69
-36 142 -53 156 -23 18 -152 20 -174 1 -11 -8 -13 -272 -11 -1379 0 -752 2
-1373 2 -1380 1 -8 26 -12 81 -11 64 0 86 5 105 20 25 20 50 88 59 163 3 22
14 93 26 158 11 66 20 124 20 130 0 17 10 1 15 -24 16 -77 55 -325 55 -345 0
-14 6 -27 13 -29 28 -11 176 -12 180 -1 2 6 5 108 7 226 1 118 4 285 5 370 2
85 6 331 10 545 4 215 8 467 10 560 2 94 6 355 10 580 4 226 8 427 9 448 l3
37 -56 -1 c-31 -1 -72 -5 -91 -9z"/>
<path d="M4780 9512 c-33 -4 -87 -21 -130 -40 -37 -16 -127 -85 -148 -114 -7
-9 -19 -23 -27 -31 -20 -20 -84 -138 -96 -179 -30 -93 -38 -159 -34 -278 3
-133 6 -153 31 -228 49 -145 140 -255 254 -309 160 -76 371 -62 486 33 45 36
95 120 108 179 24 111 24 154 2 171 -27 19 -44 7 -51 -39 -4 -23 -9 -55 -11
-72 -3 -16 -19 -58 -36 -93 -49 -100 -133 -152 -242 -152 -161 0 -273 117
-321 335 -18 82 -24 278 -11 385 19 164 85 288 180 337 16 9 55 18 86 20 76 7
146 -23 204 -88 40 -44 85 -141 89 -189 2 -33 17 -23 38 28 24 56 81 170 117
231 l26 44 -25 -7 c-69 -21 -115 -18 -204 13 -114 39 -210 54 -285 43z"/>
<path d="M5915 9512 c-206 -22 -405 -243 -434 -482 -8 -65 -7 -227 1 -285 22
-149 102 -291 211 -371 166 -123 459 -118 573 9 64 71 104 172 105 264 1 65
-20 99 -45 73 -8 -8 -17 -31 -20 -50 -13 -82 -18 -98 -46 -155 -48 -100 -114
-145 -222 -153 -193 -14 -317 129 -352 405 -24 193 -1 405 55 519 82 163 260
203 390 87 47 -43 95 -123 104 -176 14 -72 18 -68 101 101 68 137 78 163 60
157 -64 -20 -113 -17 -201 13 -125 42 -195 53 -280 44z"/>
<path d="M20318 9508 c-2 -7 -3 -566 -3 -1243 l1 -1230 657 -3 657 -2 0 1245
0 1245 -654 0 c-514 0 -655 -3 -658 -12z m592 -218 c0 -4 -16 -14 -35 -23
l-35 -17 76 -107 c43 -60 113 -159 157 -220 43 -62 81 -113 83 -113 2 0 2 13
0 29 -2 23 -53 110 -77 131 -14 13 -191 271 -188 274 15 13 89 45 89 38 0 -5
-16 -16 -36 -25 l-35 -17 63 -90 c35 -50 88 -126 118 -170 31 -43 58 -82 62
-85 3 -3 5 68 4 157 -2 177 -8 198 -58 221 -16 6 -28 14 -28 17 0 3 58 5 129
5 71 0 128 -1 126 -3 -2 -2 -18 -12 -36 -21 -18 -10 -42 -30 -53 -45 -19 -25
-20 -43 -21 -279 l-1 -252 -55 -3 -55 -3 -65 91 c-35 50 -96 135 -135 189 -40
54 -77 108 -83 119 -7 12 -15 22 -19 22 -12 0 -6 -321 7 -353 6 -15 17 -30 26
-33 8 -3 12 -10 9 -15 -3 -5 0 -10 5 -10 6 -1 14 -2 19 -3 4 0 20 -11 36 -23
l29 -23 -183 0 c-101 0 -181 3 -177 6 3 3 76 6 163 6 132 1 154 3 139 14 -13
10 -55 13 -156 11 -77 -1 -139 0 -139 3 0 3 18 13 39 23 64 29 71 60 71 313
l0 215 -35 20 c-19 12 -35 24 -35 27 0 4 65 7 145 7 80 0 145 -2 145 -5z m445
-40 c-3 -5 -15 -10 -25 -10 -10 0 -28 -12 -39 -26 -20 -26 -21 -39 -21 -295
l0 -269 -77 2 -78 1 65 6 65 6 5 265 c3 146 9 272 13 281 8 15 33 31 67 42 25
9 32 8 25 -3z m-205 -728 c64 -11 119 -15 140 -11 19 4 37 6 39 4 2 -2 -10
-21 -26 -42 -16 -21 -42 -58 -58 -82 l-29 -43 -8 31 c-11 42 -66 94 -115 109
-130 39 -272 -18 -320 -127 -22 -51 -25 -158 -7 -222 35 -122 135 -176 324
-174 l75 0 1 123 2 122 -112 1 c-123 1 -156 4 -171 20 -7 8 -3 9 15 3 14 -4
79 -8 146 -9 94 -1 121 1 121 12 0 10 -29 13 -131 13 -139 0 -176 10 -176 49
0 42 70 64 91 29 9 -15 -7 -37 -30 -40 -9 -1 91 -5 222 -8 l239 -5 -44 -31
-43 -30 1 -113 c1 -121 2 -125 59 -152 16 -8 15 -6 -2 7 -22 15 -23 24 -23
135 l0 118 33 25 c35 27 47 31 47 18 0 -4 -13 -16 -30 -25 l-30 -18 0 -112 0
-112 52 -47 c45 -40 50 -47 31 -48 -14 0 -23 6 -23 14 0 8 -5 18 -11 22 -6 3
-115 6 -242 6 -253 -1 -318 7 -388 45 -102 55 -157 134 -164 236 -7 117 47
213 154 273 100 55 215 66 391 36z m173 -104 c-27 -40 -56 -74 -63 -76 -8 -3
4 19 25 49 22 30 48 66 59 81 11 15 22 26 25 23 2 -3 -18 -38 -46 -77z m-209
39 c22 -10 37 -20 34 -22 -3 -3 -22 2 -44 11 -121 51 -260 -16 -281 -133 -21
-123 1 -218 65 -281 41 -40 42 -43 12 -22 -57 39 -86 84 -96 147 -24 150 12
251 108 296 59 28 142 29 202 4z m-161 -550 c15 0 27 -4 27 -8 0 -10 -81 -3
-110 10 -22 9 -20 10 15 4 22 -3 52 -6 68 -6z m447 -7 c0 -3 -92 -6 -205 -6
-113 0 -205 2 -205 5 0 4 92 6 205 7 113 0 205 -3 205 -6z m-313 -130 c62 -20
107 -46 141 -81 116 -118 112 -329 -7 -437 -137 -125 -426 -108 -550 33 -49
57 -64 100 -65 195 0 76 3 91 29 139 46 83 130 140 235 160 59 11 169 6 217
-9z m211 -89 c12 -14 34 -50 48 -80 32 -66 36 -179 10 -250 -35 -95 -130 -176
-241 -205 -70 -18 -230 -16 -248 4 -9 10 -7 11 10 6 45 -14 145 -14 209 0 159
33 266 150 267 293 1 80 -5 117 -28 165 -22 45 -83 111 -112 120 -13 4 -23 12
-23 17 0 13 80 -39 108 -70z"/>
<path d="M20742 9015 c1 -99 5 -198 10 -220 8 -38 47 -85 70 -85 6 0 2 10 -9
23 -32 34 -36 60 -36 239 0 145 -2 170 -18 195 -18 27 -19 26 -17 -152z"/>
<path d="M20898 7740 c-106 -30 -158 -128 -153 -286 6 -166 73 -244 212 -246
137 -2 206 84 209 261 1 96 -11 159 -41 205 -34 51 -155 86 -227 66z m165 -39
c15 -6 27 -13 27 -16 0 -2 -12 0 -27 6 -45 17 -125 15 -164 -4 -118 -58 -126
-356 -12 -447 l28 -22 -35 20 c-72 41 -107 156 -88 294 13 100 53 152 138 181
22 7 101 1 133 -12z"/>
<path d="M2118 9499 c-116 -16 -215 -84 -265 -184 -35 -68 -37 -195 -4 -271
38 -87 121 -148 241 -179 3 0 23 -5 45 -10 194 -42 287 -75 338 -124 62 -57
86 -158 56 -234 -40 -102 -188 -153 -345 -121 -140 28 -218 102 -261 247 -8
27 -18 46 -22 41 -5 -5 -20 -40 -35 -79 -14 -38 -48 -108 -75 -155 -27 -46
-48 -86 -46 -88 2 -2 24 4 49 12 60 21 84 20 183 -4 45 -11 92 -21 105 -24 13
-2 45 -9 72 -16 68 -15 211 -15 266 0 174 48 284 192 274 359 -5 69 -20 115
-55 167 -58 85 -141 127 -348 179 -149 37 -183 50 -239 92 -97 73 -86 225 21
288 50 30 124 43 181 32 108 -19 176 -79 217 -190 l27 -72 26 59 c14 32 26 60
26 62 0 9 56 124 77 156 13 21 21 38 19 38 -2 0 -21 -7 -42 -16 -40 -17 -108
-15 -174 5 -95 29 -225 42 -312 30z"/>
<path d="M10025 9502 c-77 -8 -159 -47 -216 -102 -65 -64 -90 -124 -90 -218
-1 -195 87 -277 371 -341 241 -55 332 -119 344 -243 7 -66 -11 -118 -56 -161
-59 -56 -110 -72 -228 -69 -162 4 -277 86 -328 233 -6 19 -12 43 -12 52 0 30
-18 18 -30 -20 -17 -53 -78 -178 -119 -242 -32 -52 -33 -54 -10 -47 109 34
109 34 333 -19 176 -42 322 -35 420 21 62 35 126 103 155 164 22 47 26 68 25
145 0 76 -4 98 -26 140 -56 107 -149 164 -351 214 -70 18 -146 39 -170 47
-101 36 -157 103 -157 189 0 129 136 212 294 180 42 -9 132 -72 155 -108 10
-18 27 -56 37 -84 10 -29 21 -53 25 -53 6 0 19 24 42 80 39 93 80 176 94 192
23 26 10 32 -26 14 -41 -22 -74 -20 -202 9 -103 24 -208 34 -274 27z"/>
<path d="M21740 8216 l0 -1296 -650 0 c-357 0 -650 -3 -650 -8 0 -4 7 -17 15
-28 14 -21 15 -21 682 -20 l668 1 2 1285 1 1286 -34 38 -34 38 0 -1296z"/>
<path d="M15435 9486 c-84 -16 -181 -48 -248 -82 l-49 -25 43 -24 44 -23 3
-226 2 -226 -54 0 -54 0 -16 -47 c-21 -62 -21 -64 11 -52 14 5 46 12 70 15 40
5 43 3 43 -19 0 -21 -8 -26 -60 -41 -34 -9 -58 -21 -55 -26 3 -5 25 -3 53 5
26 8 50 15 55 15 4 0 7 -69 7 -154 l0 -153 -49 -46 c-27 -26 -52 -50 -54 -54
-3 -5 82 -8 188 -8 216 0 205 -6 133 69 l-38 40 0 203 c0 155 3 203 13 204 6
0 19 2 27 4 15 3 53 9 128 21 20 3 40 8 44 10 7 5 28 -28 28 -44 0 -10 -104
-40 -155 -44 l-30 -3 -2 -185 -3 -185 53 -56 c28 -31 58 -62 64 -71 11 -13
-13 -14 -201 -13 -170 0 -213 -2 -209 -12 4 -10 59 -13 241 -13 l236 0 -39 42
c-22 23 -42 45 -45 48 -3 3 -21 23 -41 45 l-35 41 1 169 0 168 28 4 c15 2 55
12 88 23 l60 18 11 -26 c47 -119 116 -361 133 -462 11 -70 27 -140 31 -140 2
0 25 13 52 30 46 28 114 61 194 93 l37 15 -67 70 c-88 90 -179 225 -246 365
-78 161 -79 147 10 182 136 53 226 166 225 280 0 125 -119 242 -286 282 -52
12 -255 12 -320 -1z m254 -73 c58 -21 127 -85 142 -131 38 -113 -5 -228 -106
-287 -53 -32 -130 -61 -185 -70 -22 -4 -43 -7 -47 -8 -4 -1 -8 94 -8 211 0
241 -8 223 93 223 80 1 130 -14 194 -58 46 -32 50 -27 13 13 -41 44 -135 72
-225 67 -110 -5 -100 19 -100 -237 l0 -224 -25 -4 -25 -5 0 249 0 248 28 11
c75 29 176 30 251 2z"/>
<path d="M3310 9480 c0 -3 18 -26 40 -50 22 -25 40 -49 40 -54 0 -7 -80 -235
-97 -276 -8 -18 -10 -27 -12 -40 -2 -17 -16 -11 -56 20 -21 17 -42 30 -46 30
-11 0 -12 -30 -1 -30 4 -1 24 -15 45 -33 27 -23 36 -38 31 -50 -9 -24 -16 -22
-69 25 -35 31 -50 39 -53 28 -3 -8 -20 -42 -38 -77 l-34 -63 39 -6 c22 -4 53
-15 70 -25 l30 -18 -20 -58 c-11 -32 -22 -62 -23 -68 -5 -18 -18 -49 -56 -131
-47 -102 -104 -180 -164 -224 -26 -19 -56 -42 -67 -50 -18 -14 1 -15 200 -15
122 0 221 0 221 1 0 1 -16 19 -36 40 -82 90 -86 145 -23 339 37 115 41 121 62
97 16 -17 15 -24 -14 -107 -63 -186 -58 -249 28 -367 18 -25 30 -48 26 -51 -4
-2 -105 -4 -224 -3 -169 1 -215 -2 -212 -11 4 -10 63 -13 250 -13 l245 0 -36
48 c-78 102 -91 131 -91 207 0 51 8 94 29 158 16 48 33 87 37 87 8 0 92 -112
126 -168 l20 -33 26 40 c14 22 54 69 88 106 45 48 64 62 70 53 14 -21 10 -31
-24 -69 -78 -87 -136 -169 -118 -169 5 0 23 19 40 43 39 55 118 143 123 137
17 -20 99 -263 91 -268 -26 -18 -103 -85 -103 -91 0 -3 99 -6 220 -6 121 0
220 1 220 1 0 1 -29 25 -66 54 -36 28 -67 59 -70 68 -3 9 -10 26 -15 37 -5 11
-24 63 -43 115 -18 52 -48 135 -66 183 -22 59 -29 92 -22 99 13 13 72 26 114
23 l35 -1 -28 60 c-16 34 -32 75 -35 93 l-6 32 -39 -31 c-21 -17 -40 -29 -42
-27 -1 2 -31 78 -64 168 l-62 165 45 52 c48 57 44 86 -5 32 -77 -85 -77 -55
-1 -255 60 -159 66 -179 52 -191 -22 -17 -21 -18 -117 248 -13 36 -30 81 -39
101 l-15 35 44 50 c24 27 41 51 39 54 -7 7 -394 7 -394 0z m160 -242 c0 -22
-37 -130 -99 -290 -9 -24 -6 -31 32 -72 23 -24 56 -64 74 -88 26 -37 29 -46
18 -61 -7 -9 -15 -17 -18 -17 -3 0 -26 28 -50 63 -25 34 -56 73 -69 87 -53 57
-53 47 3 196 69 186 66 178 69 189 1 6 7 18 12 29 8 15 12 16 19 5 5 -8 9 -26
9 -41z m90 -225 l57 -153 -47 -50 -47 -50 -25 38 c-14 21 -44 60 -67 86 -39
44 -40 49 -28 74 8 15 31 74 52 131 21 58 41 98 43 90 3 -8 31 -83 62 -166z"/>
<path d="M6679 9429 l61 -58 0 -204 0 -205 -29 -7 c-52 -11 -141 -103 -141
-145 0 -7 14 0 32 15 54 46 138 67 138 35 0 -10 -15 -20 -43 -27 -49 -13 -100
-50 -91 -65 4 -5 15 -1 28 11 22 21 67 41 92 41 12 0 14 -33 14 -199 l0 -199
-55 -47 c-30 -27 -55 -51 -55 -54 0 -7 377 -7 398 0 7 2 24 -10 38 -27 l24
-30 -215 0 c-192 1 -243 -4 -202 -20 7 -2 115 -3 240 -2 l227 3 -22 25 c-13
14 -46 52 -73 84 l-50 59 -1 192 0 191 115 -2 c64 -2 135 1 159 5 26 5 45 5
48 -1 4 -6 6 -92 6 -191 l-1 -182 -56 -50 c-30 -27 -55 -52 -55 -55 0 -3 91
-5 201 -5 l201 -1 -53 50 -54 49 0 475 0 474 57 56 c32 31 58 58 58 62 0 4
-384 6 -400 1 -3 -1 19 -23 48 -49 l53 -48 0 -208 c0 -114 -2 -210 -4 -212 -4
-4 -198 -8 -278 -6 l-45 2 0 191 1 192 43 44 c40 42 52 63 34 63 -4 0 -29 -22
-55 -48 l-47 -48 0 -196 c0 -181 -1 -196 -17 -193 -10 2 -21 4 -25 4 -5 1 -8
90 -8 199 l0 199 60 56 c33 30 60 57 60 59 0 2 -95 3 -211 3 l-211 1 61 -57z
m493 -574 c70 2 131 6 137 10 7 3 11 -2 11 -14 0 -30 -35 -36 -202 -35 l-148
0 0 -206 0 -207 29 -34 c43 -48 30 -48 -28 1 l-51 43 0 222 c0 122 2 224 5
226 2 3 30 2 62 -1 32 -4 115 -6 185 -5z"/>
<path d="M8253 9470 c6 -8 26 -31 44 -51 l34 -36 -46 -129 c-26 -71 -53 -148
-62 -171 l-15 -43 -44 37 c-28 23 -48 33 -54 27 -6 -6 7 -24 35 -47 25 -21 45
-44 45 -52 0 -30 -22 -25 -63 14 -23 23 -44 41 -47 41 -4 0 -46 -77 -78 -142
-2 -4 14 -10 35 -14 45 -8 93 -34 93 -49 0 -12 -40 -131 -60 -180 -27 -66 -36
-82 -71 -145 -41 -71 -122 -158 -175 -186 -19 -10 -34 -21 -34 -24 0 -9 420
-6 421 3 1 5 -9 20 -21 34 -77 89 -82 150 -25 331 l38 122 24 -21 c13 -13 19
-27 15 -33 -20 -26 -66 -205 -66 -256 -1 -76 7 -98 59 -168 24 -34 41 -63 37
-65 -4 -2 -105 -4 -225 -3 -140 1 -216 -3 -214 -9 2 -6 97 -11 251 -13 l247
-2 -57 74 c-66 89 -84 145 -72 226 9 59 56 200 67 200 7 0 87 -108 120 -162
l23 -38 42 58 c24 32 65 80 92 106 46 45 48 47 56 26 7 -18 -1 -32 -40 -75
-69 -75 -125 -155 -109 -155 8 0 30 24 50 53 50 73 115 135 122 116 3 -8 25
-66 49 -129 l44 -115 -60 -55 -61 -55 226 0 c125 0 223 3 219 7 -4 3 -34 27
-67 53 l-60 46 -82 222 c-44 122 -78 226 -74 230 10 10 130 29 141 22 14 -9
13 -4 -20 73 -16 39 -30 81 -30 92 0 21 -2 20 -39 -9 -21 -17 -41 -31 -44 -31
-5 0 -6 2 -62 155 -20 55 -40 109 -45 120 -23 53 -21 61 25 113 25 28 42 53
37 56 -12 7 -24 -3 -70 -57 l-41 -48 36 -97 c93 -251 97 -263 82 -273 -19 -11
-21 -8 -63 106 -21 55 -41 109 -46 120 -5 11 -18 45 -28 75 -11 30 -23 62 -27
71 -4 12 8 34 39 68 25 29 46 53 46 54 0 1 -92 2 -204 2 -182 1 -204 -1 -193
-15z m152 -218 c4 -19 -3 -52 -20 -98 -14 -38 -39 -106 -56 -152 l-30 -83 40
-42 c51 -54 100 -119 101 -133 0 -6 -6 -17 -14 -23 -11 -9 -28 7 -86 81 -41
51 -77 95 -82 96 -11 5 -10 38 2 60 5 9 35 88 67 174 31 86 60 155 64 152 4
-2 10 -17 14 -32z m45 -106 c0 -5 23 -71 52 -147 l51 -139 -46 -49 -46 -49
-42 56 c-23 32 -53 69 -66 83 l-24 26 45 120 c25 66 46 126 46 134 0 14 29
-20 30 -35z"/>
<path d="M11200 9480 c0 -3 20 -26 44 -52 l45 -47 -24 -63 c-13 -35 -35 -97
-50 -138 -14 -41 -30 -83 -36 -92 -5 -10 -9 -25 -9 -34 0 -13 -4 -12 -27 6
-56 43 -74 53 -81 46 -4 -4 15 -27 41 -50 34 -30 46 -47 41 -59 -9 -24 -15
-22 -63 23 -23 22 -45 40 -47 40 -2 0 -15 -24 -28 -54 -13 -29 -29 -57 -35
-60 -25 -16 -9 -34 38 -46 27 -6 57 -20 65 -29 15 -17 14 -25 -14 -107 -74
-211 -160 -344 -265 -411 -25 -15 -45 -30 -45 -33 0 -3 97 -5 215 -5 118 0
215 2 215 4 0 2 -16 21 -36 43 -77 85 -80 147 -18 337 l36 113 21 -20 20 -20
-33 -94 c-27 -76 -34 -109 -34 -179 l-1 -87 48 -69 c26 -39 47 -72 47 -74 0
-3 -96 -4 -212 -4 -218 1 -242 0 -232 -16 6 -11 494 -12 494 -1 0 4 -16 25
-36 47 -57 65 -92 145 -88 201 4 73 23 156 43 189 3 6 6 16 8 24 1 7 6 18 12
24 13 13 15 10 98 -112 l56 -83 14 27 c17 32 42 62 108 133 47 49 51 51 62 33
10 -16 5 -27 -44 -82 -74 -86 -117 -149 -101 -149 7 0 28 22 46 48 39 57 110
137 116 131 7 -7 96 -243 96 -255 0 -6 -27 -33 -60 -59 -33 -26 -60 -49 -60
-49 0 -1 101 -1 224 -1 249 -1 241 -4 152 64 -48 37 -57 50 -81 119 -15 42
-34 91 -41 107 -7 17 -29 77 -50 135 -20 58 -39 111 -41 117 -6 16 40 34 97
38 25 2 48 3 52 4 3 1 -2 18 -12 39 -10 20 -26 61 -35 90 l-18 53 -33 -32
c-21 -20 -37 -29 -42 -23 -5 5 -24 50 -42 99 -18 50 -43 119 -56 154 -13 36
-22 72 -19 80 3 9 21 33 40 54 19 21 35 42 35 48 0 20 -20 6 -65 -47 l-47 -55
27 -72 c15 -40 35 -94 46 -122 10 -27 27 -75 39 -105 19 -52 19 -56 3 -68 -15
-10 -18 -10 -24 5 -4 10 -36 97 -73 195 -36 97 -66 180 -66 185 0 4 16 24 35
44 60 64 62 63 -157 64 -109 0 -198 -2 -198 -5z m145 -321 c-15 -41 -40 -108
-56 -149 -16 -41 -29 -79 -29 -84 0 -4 21 -31 46 -60 26 -28 58 -68 72 -89 23
-35 24 -39 9 -54 -9 -9 -18 -15 -20 -12 -2 2 -25 33 -52 69 -27 36 -63 81 -81
102 l-32 36 40 104 c21 56 53 141 70 187 l31 85 15 -31 c14 -29 13 -36 -13
-104z m106 -139 l60 -163 -47 -48 -47 -48 -36 49 c-20 27 -49 65 -65 85 l-28
35 48 130 c27 71 50 128 51 126 2 -2 31 -76 64 -166z"/>
<path d="M12240 9479 c0 -4 25 -29 56 -57 l55 -50 -3 -439 c-3 -379 -5 -443
-19 -474 -19 -41 -68 -90 -116 -116 -18 -10 -33 -20 -33 -23 0 -3 88 -5 196
-5 194 0 204 -1 216 -35 5 -13 -22 -15 -212 -15 -172 0 -217 -2 -213 -12 4
-10 61 -13 244 -13 l240 0 -70 87 c-56 69 -72 96 -77 133 -8 49 -12 581 -5
574 3 -2 58 -163 123 -356 65 -193 119 -353 121 -354 10 -10 57 -10 65 -1 5 7
39 98 77 202 82 231 128 361 188 525 25 69 48 135 52 148 12 42 23 22 20 -42
-1 -35 -5 -68 -9 -74 -3 -6 -28 -73 -55 -149 -101 -285 -113 -320 -137 -385
-13 -38 -36 -101 -50 -140 -14 -40 -29 -82 -34 -93 -5 -11 -10 -27 -13 -35 -2
-9 -16 -16 -35 -16 -50 -2 -54 -3 -47 -14 3 -5 26 -10 49 -10 40 0 45 3 56 33
6 17 18 48 25 67 8 19 42 114 75 210 34 96 72 202 85 235 13 33 36 95 51 138
14 42 30 77 33 77 4 0 7 -129 7 -287 l-1 -288 -50 -45 c-27 -25 -55 -50 -61
-55 -7 -7 55 -10 193 -10 111 0 203 1 203 3 0 2 -23 26 -52 54 l-52 50 0 469
0 469 59 60 c33 33 57 61 55 61 -19 5 -440 3 -440 -2 0 -3 17 -24 38 -45 67
-72 65 -61 28 -165 -19 -52 -69 -191 -111 -309 -43 -118 -80 -220 -84 -227 -3
-7 -32 65 -64 160 -32 95 -62 181 -67 192 -8 19 -61 177 -80 238 -8 25 -5 30
48 69 61 45 55 67 -6 24 -85 -61 -80 -44 -45 -149 77 -229 175 -514 183 -532
13 -28 14 -56 6 -80 -5 -11 -10 -26 -12 -34 -3 -8 -7 -12 -9 -9 -3 3 -62 173
-131 379 l-125 374 61 55 c33 30 60 57 60 60 0 3 -101 5 -225 5 -124 0 -225
-3 -225 -6z m208 -286 c20 -58 22 -83 22 -388 1 -360 4 -382 63 -444 31 -32
31 -33 7 -26 -42 13 -69 38 -92 85 -23 44 -23 53 -26 445 -2 220 -2 398 1 395
2 -3 14 -33 25 -67z"/>
<path d="M14070 9480 c0 -3 18 -26 40 -50 22 -24 40 -50 40 -58 0 -7 -9 -34
-19 -60 -11 -26 -37 -95 -57 -154 -21 -60 -41 -108 -45 -108 -3 0 -23 14 -44
30 -21 17 -42 30 -46 30 -11 0 -12 -30 -1 -30 4 -1 24 -15 45 -33 27 -23 36
-38 31 -50 -9 -24 -16 -22 -69 25 -36 32 -50 39 -53 28 -3 -8 -20 -43 -38 -77
-24 -47 -29 -63 -18 -64 8 -1 17 -2 22 -4 4 -1 21 -5 37 -10 66 -17 68 -26 29
-138 -76 -216 -148 -327 -261 -402 -24 -15 -43 -30 -43 -34 0 -3 96 -6 214 -6
234 0 223 -4 170 53 -65 68 -69 160 -16 320 42 124 44 128 65 104 16 -17 16
-23 -8 -89 -68 -196 -63 -277 24 -387 17 -21 31 -42 31 -45 0 -4 -99 -6 -221
-6 -199 0 -256 -5 -217 -20 7 -3 121 -4 252 -3 l238 3 -39 50 c-63 80 -84 122
-89 172 -4 57 17 162 46 232 l22 51 18 -23 c10 -12 42 -59 72 -104 l55 -82 36
52 c20 29 61 76 91 106 50 50 54 52 61 31 5 -17 -4 -34 -42 -78 -70 -80 -114
-143 -107 -153 3 -5 31 26 63 69 58 76 98 119 104 111 2 -2 25 -62 52 -132 29
-78 44 -131 38 -135 -26 -18 -103 -85 -103 -91 0 -3 99 -6 221 -6 l221 0 -43
35 c-92 75 -93 76 -174 298 -53 145 -75 216 -68 223 14 14 73 27 116 24 l36
-1 -18 35 c-22 44 -46 113 -50 141 0 6 -19 -4 -41 -21 -22 -18 -41 -30 -43
-28 -2 3 -99 258 -124 328 -1 3 18 29 42 56 45 50 53 65 36 65 -13 0 -101
-100 -101 -115 0 -7 19 -61 41 -121 93 -245 89 -233 69 -244 -14 -8 -20 -4
-28 18 -5 15 -20 54 -32 87 -12 33 -26 69 -31 80 -5 11 -18 47 -30 80 -11 33
-27 73 -34 90 -13 28 -12 31 31 81 24 29 44 54 44 56 0 2 -90 3 -200 3 -110 0
-200 -2 -200 -5z m151 -298 c-11 -26 -34 -85 -51 -132 -18 -47 -36 -95 -41
-107 -6 -17 -1 -28 24 -55 85 -91 117 -140 106 -161 -6 -9 -13 -17 -18 -17 -4
0 -29 30 -56 66 -26 36 -55 74 -64 83 -9 9 -24 26 -34 37 -19 23 -27 -2 115
374 l10 25 14 -33 c12 -30 12 -39 -5 -80z m99 -169 l57 -152 -46 -51 -47 -51
-37 54 c-20 29 -48 64 -62 77 -28 27 -31 48 -11 93 7 18 28 72 47 121 18 49
35 83 38 75 2 -8 30 -82 61 -166z"/>
<path d="M16380 9482 c0 -2 24 -27 53 -54 l52 -51 1 -223 0 -222 -45 -7 c-25
-4 -58 -13 -72 -21 -30 -15 -83 -74 -75 -82 3 -3 23 3 45 12 21 10 63 19 92
20 48 1 54 -1 54 -19 0 -15 -8 -21 -30 -23 -42 -4 -115 -32 -115 -44 0 -6 7
-7 16 -4 39 15 105 28 117 23 10 -4 13 -45 13 -186 l-1 -181 -52 -42 c-28 -24
-53 -47 -55 -53 -2 -6 70 -10 195 -10 108 0 197 2 197 5 0 4 -22 26 -49 50
l-49 44 -1 221 0 221 111 2 c301 3 411 43 480 174 31 61 35 180 7 246 -39 91
-147 171 -254 186 -23 4 -52 9 -65 12 -28 6 -570 12 -570 6z m505 -96 c131
-18 205 -98 205 -221 0 -75 -12 -107 -54 -150 -52 -51 -107 -70 -236 -78 l-56
-4 0 195 0 194 103 -4 c86 -4 110 -9 155 -32 47 -25 50 -25 33 -6 -38 42 -75
53 -197 58 -110 4 -118 3 -119 -14 0 -11 0 -102 0 -204 l0 -186 -24 0 -24 0 0
227 c0 227 0 228 22 231 33 5 135 1 192 -6z"/>
<path d="M17900 9482 c0 -2 21 -25 46 -52 l45 -48 -24 -69 c-14 -37 -41 -114
-62 -171 l-38 -103 -26 23 c-45 41 -60 50 -71 43 -7 -4 7 -23 35 -47 25 -22
45 -46 45 -53 0 -30 -23 -25 -65 14 -25 23 -46 41 -49 41 -2 0 -19 -30 -37
-67 -18 -38 -35 -71 -36 -74 -2 -4 13 -10 34 -14 49 -9 93 -32 93 -49 0 -20
-63 -192 -95 -261 -53 -111 -131 -204 -212 -252 -24 -14 -43 -26 -43 -26 0 -1
99 -2 220 -2 121 0 220 2 220 5 0 3 -14 21 -31 40 -76 86 -81 147 -24 328 l39
122 22 -21 c22 -21 22 -22 5 -63 -9 -22 -23 -61 -30 -86 -7 -25 -17 -56 -21
-70 -4 -14 -6 -53 -5 -87 2 -64 30 -127 81 -182 13 -14 21 -28 19 -31 -2 -4
-103 -6 -224 -6 -143 1 -220 -3 -218 -9 2 -6 97 -11 251 -13 l247 -2 -55 72
c-30 40 -60 86 -66 102 -13 34 -15 98 -6 147 10 49 57 179 65 179 8 0 63 -73
110 -147 l34 -52 42 57 c50 67 120 142 134 142 5 0 12 -7 15 -16 4 -10 -14
-39 -52 -82 -83 -96 -116 -142 -100 -142 8 0 32 26 56 58 57 78 103 125 112
115 4 -4 17 -33 28 -63 11 -30 31 -85 45 -122 l26 -67 -60 -51 c-34 -27 -59
-51 -57 -51 4 -2 448 -5 448 -3 0 1 -31 25 -68 53 -64 49 -70 56 -92 124 -13
40 -27 77 -30 82 -4 6 -17 39 -29 75 -12 36 -26 74 -31 85 -5 11 -18 46 -29
78 l-21 58 28 11 c15 6 51 11 80 11 43 1 51 4 46 17 -4 8 -19 49 -34 91 l-26
76 -38 -30 c-20 -16 -38 -28 -41 -26 -3 4 -125 327 -125 333 0 2 20 25 44 52
29 32 41 51 33 56 -15 9 -108 -92 -103 -112 3 -8 32 -89 66 -179 56 -148 61
-165 46 -179 -14 -14 -16 -13 -26 14 -7 16 -38 99 -70 184 -32 85 -61 162 -65
171 -4 12 8 34 39 68 25 29 46 53 46 54 0 1 -92 2 -205 2 -113 0 -205 -1 -205
-3z m165 -231 c6 -29 5 -34 -65 -220 l-42 -115 24 -21 c14 -12 48 -51 76 -87
50 -63 51 -66 33 -82 -18 -17 -21 -15 -74 56 -30 40 -68 86 -84 101 l-30 28
71 188 c39 104 74 187 78 185 3 -2 9 -17 13 -33z m99 -259 c25 -68 46 -126 46
-130 -1 -4 -21 -28 -45 -55 l-44 -47 -30 44 c-17 24 -37 51 -43 58 -7 8 -23
25 -35 39 l-22 24 25 70 c13 39 37 99 51 133 l27 64 12 -39 c6 -21 32 -93 58
-161z"/>
<path d="M19000 9430 l60 -55 -3 -435 c-3 -381 -6 -441 -21 -480 -20 -53 -57
-95 -108 -121 -21 -11 -38 -21 -38 -22 0 -1 91 -2 202 -2 198 1 202 0 225 -23
13 -12 23 -24 23 -26 0 -1 -101 -2 -224 -2 -175 1 -222 -2 -219 -11 4 -10 63
-13 251 -13 l245 0 -19 23 c-38 45 -55 59 -92 74 -92 38 -124 84 -140 203 -9
72 -17 749 -8 740 2 -3 13 -22 25 -42 19 -36 20 -53 21 -380 1 -310 3 -348 21
-397 20 -57 41 -86 74 -103 15 -8 14 -4 -7 18 -29 32 -47 71 -55 124 -7 46
-10 640 -3 640 3 -1 24 -40 47 -88 94 -194 366 -718 378 -728 8 -5 44 -10 82
-9 l68 1 2 464 c2 286 7 484 13 516 14 68 44 112 102 149 26 17 47 32 47 35 1
3 -84 5 -189 5 -104 0 -190 -2 -190 -5 0 -3 16 -14 36 -25 55 -30 82 -72 93
-146 8 -57 14 -616 7 -607 -2 1 -80 154 -173 338 l-170 335 54 38 c29 21 51
42 48 47 -6 10 -28 -2 -97 -51 l-37 -26 18 -34 c10 -19 95 -186 189 -371 151
-296 172 -343 172 -384 0 -28 -4 -44 -9 -39 -5 6 -93 177 -196 380 -104 204
-199 390 -213 415 l-24 44 24 18 c12 10 28 22 34 27 6 5 24 16 40 24 16 9 25
17 19 18 -5 1 -108 2 -228 3 l-218 1 61 -55z"/>
<path d="M2611 9311 c-71 -142 -79 -161 -62 -161 15 0 152 283 141 294 -5 5
-37 -49 -79 -133z"/>
<path d="M7604 9402 l-51 -48 0 -476 0 -476 58 -64 c32 -34 59 -66 59 -69 0
-3 -97 -5 -215 -5 -192 1 -243 -4 -202 -20 7 -2 115 -3 241 -2 l229 3 -74 85
-74 85 0 462 1 463 48 49 c62 63 45 74 -20 13z"/>
<path d="M10501 9306 c-39 -79 -71 -146 -71 -150 0 -3 6 -6 13 -5 18 1 156
287 141 293 -7 3 -40 -53 -83 -138z"/>
<path d="M13425 9392 l-50 -36 0 -474 0 -474 58 -66 c31 -36 57 -68 57 -71 0
-4 -96 -6 -214 -6 -169 0 -213 -2 -209 -12 4 -10 60 -13 245 -13 189 0 238 3
232 13 -4 6 -38 46 -76 88 l-67 75 -1 400 c0 219 -1 427 0 461 l0 63 50 37
c27 20 47 40 44 45 -8 12 -15 9 -69 -30z"/>
<path d="M5297 9363 c-73 -127 -137 -262 -126 -268 13 -9 8 -17 66 100 28 55
65 126 82 158 34 63 35 67 21 67 -5 0 -24 -26 -43 -57z"/>
<path d="M6457 9413 c-68 -114 -166 -312 -157 -318 12 -7 30 2 30 16 0 11 30
72 98 201 29 53 52 100 52 103 0 8 -18 6 -23 -2z"/>
<path d="M19961 9408 c-78 -22 -108 -63 -118 -156 -3 -31 -6 -266 -7 -522 l-1
-465 -87 0 c-65 0 -88 -3 -88 -12 0 -10 26 -13 100 -13 l100 0 1 48 c0 26 1
248 1 494 0 246 4 469 9 495 10 54 38 88 85 105 18 6 36 18 38 25 3 7 4 13 3
12 -1 0 -17 -5 -36 -11z"/>
<path d="M2174 9380 c-78 -17 -134 -81 -134 -155 0 -57 37 -112 95 -142 26
-14 24 -10 -18 37 -26 29 -48 62 -48 74 -1 11 -2 28 -3 36 -5 44 55 114 107
124 84 17 152 -1 225 -61 50 -41 56 -28 9 21 -55 56 -150 83 -233 66z"/>
<path d="M4787 9376 c-125 -46 -182 -200 -179 -479 3 -269 85 -464 212 -502
18 -6 13 1 -20 26 -116 89 -170 261 -165 523 5 234 53 359 156 405 66 30 152
15 213 -38 16 -13 18 -14 14 -1 -2 8 -23 27 -45 43 -51 34 -130 44 -186 23z"/>
<path d="M5913 9373 c-71 -24 -140 -126 -157 -230 -29 -177 -24 -360 14 -502
29 -109 93 -206 155 -236 44 -20 59 -13 17 9 -101 52 -170 234 -176 463 -6
256 40 406 143 466 46 28 124 26 181 -3 25 -12 49 -28 53 -34 6 -7 7 -6 4 4
-2 8 -22 28 -44 43 -48 34 -126 42 -190 20z"/>
<path d="M10044 9371 c-117 -40 -149 -185 -56 -261 57 -47 77 -43 27 5 -49 48
-60 78 -52 132 12 71 83 117 174 112 50 -2 130 -36 153 -64 7 -9 23 -21 34
-27 20 -11 20 -11 1 18 -24 37 -40 51 -93 75 -56 26 -128 30 -188 10z"/>
<path d="M17272 9354 c47 -50 71 -120 72 -204 0 -98 -8 -132 -45 -189 -38 -57
-88 -94 -165 -119 -84 -29 -132 -34 -281 -34 l-133 1 -1 -30 c0 -16 0 -85 0
-154 0 -252 -6 -223 56 -290 30 -33 54 -63 55 -66 0 -3 -93 -5 -206 -5 -190 1
-249 -5 -192 -19 13 -3 119 -4 237 -3 l215 3 -70 80 -69 79 0 190 0 191 110 1
c242 4 352 36 438 127 110 118 94 397 -28 459 -15 8 -14 4 7 -18z"/>
<path d="M16068 9303 c71 -155 -6 -322 -187 -408 -72 -34 -72 -23 5 -180 54
-111 121 -213 186 -283 51 -54 138 -132 149 -132 5 0 9 -4 9 -10 0 -5 -3 -9
-7 -8 -30 6 -312 -117 -347 -152 -27 -27 12 -14 115 38 63 31 153 70 201 86
l87 29 -40 29 c-105 76 -176 151 -256 270 -53 81 -133 241 -133 266 0 4 25 18
55 31 59 25 154 109 178 156 45 91 41 194 -10 293 -30 55 -33 35 -5 -25z"/>
<path d="M3960 9042 c0 -15 32 -96 55 -142 14 -27 25 -51 25 -53 0 -2 -33 -3
-74 -1 -40 1 -78 -1 -85 -5 -8 -5 4 -49 40 -147 28 -76 55 -148 59 -159 5 -11
19 -44 30 -74 14 -36 36 -67 68 -95 25 -22 62 -55 81 -72 l34 -31 -241 1
c-191 1 -238 -2 -230 -11 8 -10 75 -13 270 -13 l260 0 -53 47 c-115 101 -156
148 -174 198 -9 28 -21 59 -25 70 -19 45 -89 241 -92 255 -3 16 20 18 120 7
28 -4 52 -5 52 -3 0 2 -20 46 -45 98 -25 53 -45 102 -45 111 0 8 -7 17 -15 21
-8 3 -15 2 -15 -2z"/>
<path d="M8900 9043 c0 -19 41 -127 60 -160 11 -19 20 -35 20 -37 0 -2 -32 -2
-71 -1 -118 4 -115 18 -36 -188 38 -100 73 -196 78 -213 8 -27 36 -56 153
-156 l28 -24 -228 1 c-236 1 -258 -1 -248 -16 3 -5 124 -9 270 -9 l265 0 -83
73 c-46 39 -92 81 -104 92 -11 11 -42 79 -68 150 -27 72 -59 158 -72 192 -13
34 -24 66 -24 71 0 9 73 8 142 -3 43 -6 44 -17 -15 107 -20 42 -37 83 -37 91
0 8 -7 20 -15 27 -8 7 -15 8 -15 3z"/>
<path d="M11862 9018 c14 -45 36 -96 59 -140 l19 -36 -68 3 c-38 2 -78 1 -90
-2 -20 -5 -20 -5 4 -71 14 -37 37 -98 51 -137 14 -38 31 -83 38 -100 7 -16 20
-50 29 -75 12 -33 39 -66 98 -120 l80 -75 -233 0 c-177 0 -233 -3 -236 -12 -4
-10 53 -13 264 -13 l268 0 -65 59 c-36 32 -82 74 -102 92 -28 25 -46 56 -69
119 -17 47 -37 101 -44 120 -7 19 -27 71 -43 116 l-30 81 46 -4 c26 -1 68 -5
94 -7 l48 -5 -29 57 c-27 53 -39 80 -69 155 -16 39 -33 35 -20 -5z"/>
<path d="M14720 9046 c0 -14 45 -128 64 -161 l23 -43 -76 3 c-43 2 -83 0 -89
-4 -9 -5 -1 -37 28 -117 22 -60 47 -124 55 -142 8 -18 15 -38 15 -45 1 -7 9
-30 20 -52 11 -22 19 -45 20 -52 0 -11 19 -30 128 -130 l43 -39 -239 1 c-191
0 -239 -2 -235 -12 4 -10 64 -13 271 -13 l265 0 -59 52 c-146 129 -144 127
-217 323 -36 99 -67 187 -69 195 -3 16 18 17 120 7 28 -2 52 -2 52 2 0 4 -15
36 -34 71 -19 36 -40 84 -47 107 -6 23 -18 44 -25 47 -8 3 -14 4 -14 2z"/>
<path d="M18564 9025 c4 -16 22 -65 40 -107 l34 -78 -66 5 c-122 8 -120 24
-27 -222 l81 -215 60 -51 c32 -29 69 -61 82 -73 l23 -20 -228 1 c-235 1 -257
-1 -247 -16 3 -5 124 -9 270 -9 l264 0 -87 77 c-49 43 -95 85 -104 93 -18 18
-162 397 -154 409 2 5 17 7 32 6 16 -2 54 -6 85 -9 l58 -5 -29 57 c-15 31 -36
80 -46 107 -10 28 -25 57 -33 65 -13 13 -14 11 -8 -15z"/>
<path d="M1904 8892 c24 -47 111 -84 311 -131 150 -36 215 -61 257 -99 26 -24
36 -29 32 -16 -23 63 -85 92 -345 158 -143 36 -201 60 -233 95 -27 30 -39 26
-22 -7z"/>
<path d="M9790 8900 c18 -33 73 -69 141 -90 59 -19 163 -48 199 -55 118 -24
202 -58 244 -100 30 -30 33 -25 9 16 -25 42 -94 72 -278 119 -193 50 -229 63
-277 101 -43 34 -53 36 -38 9z"/>
<path d="M2685 8842 c45 -70 59 -120 58 -212 -2 -140 -88 -267 -226 -335 -126
-61 -242 -64 -447 -13 -133 33 -239 40 -279 19 -32 -17 -13 -35 23 -22 40 16
150 5 261 -24 123 -33 281 -41 365 -19 129 35 237 121 292 232 29 58 33 78 35
152 3 107 -17 166 -75 229 l-42 46 35 -53z"/>
<path d="M10567 8855 c83 -104 95 -254 31 -383 -49 -97 -188 -199 -298 -217
-98 -17 -196 -9 -333 26 -103 26 -152 34 -207 31 -67 -3 -85 -7 -85 -23 0 -8
8 -13 20 -11 70 10 116 10 160 2 69 -13 81 -16 155 -36 85 -22 263 -27 326 -8
152 46 272 155 313 284 16 51 19 125 9 178 -5 26 -10 52 -12 59 -4 23 -58 99
-84 118 -25 18 -24 17 5 -20z"/>
<path d="M5289 8648 c-4 -176 -90 -315 -234 -379 -112 -50 -290 -42 -407 17
-57 29 -64 25 -11 -6 71 -42 137 -61 223 -66 264 -14 424 132 456 415 4 42 3
51 -10 51 -11 0 -16 -10 -17 -32z"/>
<path d="M6422 8643 c-19 -289 -220 -444 -515 -399 -26 4 -72 18 -103 32 -70
31 -63 15 9 -19 106 -50 260 -60 365 -23 87 31 170 103 212 186 26 50 60 180
60 227 0 47 -25 43 -28 -4z"/>
<path d="M1980 8613 c0 -26 44 -114 72 -143 33 -36 50 -48 91 -65 43 -18 49
-12 10 9 -61 31 -119 110 -147 199 -3 9 -10 17 -16 17 -5 0 -10 -8 -10 -17z"/>
<path d="M9875 8608 c26 -96 81 -166 154 -199 60 -26 61 -24 5 14 -60 40 -111
106 -126 163 -7 25 -18 44 -26 44 -9 0 -11 -7 -7 -22z"/>
<path d="M1770 7957 c1 -225 45 -331 167 -395 18 -10 145 -44 213 -57 8 -2 35
-8 60 -15 25 -7 50 -13 55 -14 98 -20 124 -30 114 -42 -13 -16 -108 -47 -208
-70 -41 -9 -104 -28 -140 -41 -37 -13 -79 -28 -95 -33 -45 -14 -73 -37 -83
-67 -11 -32 -10 -286 1 -320 l7 -23 9055 0 9055 0 -2 156 c-1 166 -9 202 -51
240 -27 24 -137 70 -188 79 -53 9 -421 98 -417 101 1 1 76 21 167 44 169 43
187 47 230 56 14 3 40 9 58 14 18 5 43 7 55 5 12 -3 28 -1 35 4 15 9 27 139
27 286 l0 90 -335 1 c-399 2 -2691 14 -3700 19 -393 2 -1232 7 -1865 10 -632
3 -1517 8 -1965 10 -448 2 -1283 7 -1855 10 -572 3 -1465 7 -1985 10 -1393 8
-3225 17 -5662 30 l-748 3 0 -91z"/>
</g>
</svg>
